<svg width="16" height="17" viewBox="0 0 16 17" fill="none" xmlns="http://www.w3.org/2000/svg">
<g clip-path="url(#clip0_604_39680)">
<path d="M7.99301 2.0835C4.31301 2.0835 1.33301 5.07016 1.33301 8.75016C1.33301 12.4302 4.31301 15.4168 7.99301 15.4168C11.6797 15.4168 14.6663 12.4302 14.6663 8.75016C14.6663 5.07016 11.6797 2.0835 7.99301 2.0835ZM7.99967 14.0835C5.05301 14.0835 2.66634 11.6968 2.66634 8.75016C2.66634 5.8035 5.05301 3.41683 7.99967 3.41683C10.9463 3.41683 13.333 5.8035 13.333 8.75016C13.333 11.6968 10.9463 14.0835 7.99967 14.0835ZM8.33301 5.41683H7.33301V9.41683L10.833 11.5168L11.333 10.6968L8.33301 8.91683V5.41683Z" fill="#A4ADB7"/>
</g>
<defs>
<clipPath id="clip0_604_39680">
<rect width="16" height="16" fill="white" transform="translate(0 0.75)"/>
</clipPath>
</defs>
</svg>
