<svg width="16" height="17" viewBox="0 0 16 17" fill="none" xmlns="http://www.w3.org/2000/svg">
<path d="M12.4135 7.2355L10.0612 4.88317L10.8207 4.1226L13.1731 6.47493L12.4135 7.2355ZM3.17617 12.2068L5.08887 14.1195H3.17617V12.2068ZM3.78777 11.1555L9.22898 5.71434L11.5813 8.06667L6.14011 13.5079L3.78777 11.1555ZM14.4083 6.14299L11.1537 2.88734C11.11 2.84364 11.0582 2.80899 11.0011 2.78534C10.944 2.76169 10.8828 2.74951 10.821 2.74951C10.7592 2.74951 10.698 2.76169 10.6409 2.78534C10.5838 2.80899 10.532 2.84364 10.4883 2.88734L2 11.3761V15.2967H5.92056L14.4078 6.8079C14.4957 6.71971 14.5451 6.60025 14.5451 6.4757C14.5451 6.35115 14.4957 6.23169 14.4078 6.1435L14.4083 6.14299Z" fill="#A4ADB7"/>
</svg>
